<mxfile host="app.diagrams.net" agent="Mozilla/5.0 (Windows NT 10.0; Win64; x64) AppleWebKit/537.36 (KHTML, like Gecko) Chrome/129.0.0.0 Safari/537.36" version="24.7.17">
  <diagram name="Page-1" id="42789a77-a242-8287-6e28-9cd8cfd52e62">
    <mxGraphModel dx="1674" dy="746" grid="1" gridSize="10" guides="1" tooltips="1" connect="1" arrows="1" fold="1" page="1" pageScale="1" pageWidth="1100" pageHeight="850" background="none" math="0" shadow="0">
      <root>
        <mxCell id="0" />
        <mxCell id="1" parent="0" />
        <mxCell id="V0V0roWgJoOmdIvO1yHo-1" value="&lt;font color=&quot;#fafafa&quot;&gt;Arrivée sur le site&lt;/font&gt;" style="ellipse;shape=doubleEllipse;whiteSpace=wrap;html=1;aspect=fixed;fillColor=#191919;" vertex="1" parent="1">
          <mxGeometry x="470" y="90" width="80" height="80" as="geometry" />
        </mxCell>
        <mxCell id="V0V0roWgJoOmdIvO1yHo-3" value="Connexion" style="shape=ext;double=1;rounded=1;whiteSpace=wrap;html=1;" vertex="1" parent="1">
          <mxGeometry x="250" y="210" width="120" height="80" as="geometry" />
        </mxCell>
        <mxCell id="V0V0roWgJoOmdIvO1yHo-4" value="Identifiants corrects ?" style="html=1;whiteSpace=wrap;aspect=fixed;shape=isoRectangle;" vertex="1" parent="1">
          <mxGeometry x="235" y="335" width="150" height="90" as="geometry" />
        </mxCell>
        <mxCell id="V0V0roWgJoOmdIvO1yHo-5" value="Inscription" style="shape=ext;double=1;rounded=0;whiteSpace=wrap;html=1;" vertex="1" parent="1">
          <mxGeometry x="450" y="210" width="120" height="80" as="geometry" />
        </mxCell>
        <mxCell id="V0V0roWgJoOmdIvO1yHo-8" value="" style="endArrow=classic;html=1;rounded=0;exitX=1;exitY=0.522;exitDx=0;exitDy=0;exitPerimeter=0;entryX=1;entryY=1;entryDx=0;entryDy=0;" edge="1" parent="1" source="V0V0roWgJoOmdIvO1yHo-4" target="V0V0roWgJoOmdIvO1yHo-3">
          <mxGeometry width="50" height="50" relative="1" as="geometry">
            <mxPoint x="480" y="400" as="sourcePoint" />
            <mxPoint x="530" y="350" as="targetPoint" />
            <Array as="points" />
          </mxGeometry>
        </mxCell>
        <mxCell id="V0V0roWgJoOmdIvO1yHo-9" value="Non" style="edgeLabel;html=1;align=center;verticalAlign=middle;resizable=0;points=[];" vertex="1" connectable="0" parent="V0V0roWgJoOmdIvO1yHo-8">
          <mxGeometry x="-0.3107" y="-4" relative="1" as="geometry">
            <mxPoint as="offset" />
          </mxGeometry>
        </mxCell>
        <mxCell id="V0V0roWgJoOmdIvO1yHo-10" value="" style="endArrow=classic;html=1;rounded=0;entryX=0.507;entryY=0.056;entryDx=0;entryDy=0;entryPerimeter=0;exitX=0.5;exitY=1;exitDx=0;exitDy=0;" edge="1" parent="1" source="V0V0roWgJoOmdIvO1yHo-3" target="V0V0roWgJoOmdIvO1yHo-4">
          <mxGeometry width="50" height="50" relative="1" as="geometry">
            <mxPoint x="240" y="370" as="sourcePoint" />
            <mxPoint x="290" y="320" as="targetPoint" />
          </mxGeometry>
        </mxCell>
        <mxCell id="V0V0roWgJoOmdIvO1yHo-11" value="" style="endArrow=classic;html=1;rounded=0;exitX=0.5;exitY=1;exitDx=0;exitDy=0;entryX=1;entryY=0.25;entryDx=0;entryDy=0;" edge="1" parent="1" source="V0V0roWgJoOmdIvO1yHo-1" target="V0V0roWgJoOmdIvO1yHo-3">
          <mxGeometry width="50" height="50" relative="1" as="geometry">
            <mxPoint x="560" y="340" as="sourcePoint" />
            <mxPoint x="610" y="290" as="targetPoint" />
          </mxGeometry>
        </mxCell>
        <mxCell id="V0V0roWgJoOmdIvO1yHo-12" value="" style="endArrow=classic;html=1;rounded=0;exitX=0.5;exitY=1;exitDx=0;exitDy=0;entryX=0.5;entryY=0;entryDx=0;entryDy=0;" edge="1" parent="1" source="V0V0roWgJoOmdIvO1yHo-1" target="V0V0roWgJoOmdIvO1yHo-5">
          <mxGeometry width="50" height="50" relative="1" as="geometry">
            <mxPoint x="490" y="290" as="sourcePoint" />
            <mxPoint x="540" y="240" as="targetPoint" />
          </mxGeometry>
        </mxCell>
        <mxCell id="V0V0roWgJoOmdIvO1yHo-13" value="" style="endArrow=classic;html=1;rounded=0;entryX=1;entryY=0.5;entryDx=0;entryDy=0;exitX=0;exitY=0.5;exitDx=0;exitDy=0;" edge="1" parent="1" source="V0V0roWgJoOmdIvO1yHo-5" target="V0V0roWgJoOmdIvO1yHo-3">
          <mxGeometry width="50" height="50" relative="1" as="geometry">
            <mxPoint x="620" y="370" as="sourcePoint" />
            <mxPoint x="670" y="320" as="targetPoint" />
          </mxGeometry>
        </mxCell>
        <mxCell id="V0V0roWgJoOmdIvO1yHo-15" value="" style="endArrow=classic;html=1;rounded=0;exitX=0.5;exitY=1;exitDx=0;exitDy=0;entryX=0.5;entryY=0.033;entryDx=0;entryDy=0;entryPerimeter=0;" edge="1" parent="1" source="V0V0roWgJoOmdIvO1yHo-1" target="V0V0roWgJoOmdIvO1yHo-17">
          <mxGeometry width="50" height="50" relative="1" as="geometry">
            <mxPoint x="590" y="420" as="sourcePoint" />
            <mxPoint x="670" y="210" as="targetPoint" />
          </mxGeometry>
        </mxCell>
        <mxCell id="V0V0roWgJoOmdIvO1yHo-17" value="Déjà connecté ?" style="html=1;whiteSpace=wrap;aspect=fixed;shape=isoRectangle;" vertex="1" parent="1">
          <mxGeometry x="590" y="210" width="150" height="90" as="geometry" />
        </mxCell>
        <mxCell id="V0V0roWgJoOmdIvO1yHo-18" value="Page d&#39;accueil / Catégorie de livres" style="shape=ext;double=1;rounded=0;whiteSpace=wrap;html=1;" vertex="1" parent="1">
          <mxGeometry x="450" y="430" width="120" height="80" as="geometry" />
        </mxCell>
        <mxCell id="V0V0roWgJoOmdIvO1yHo-19" value="" style="endArrow=classic;html=1;rounded=0;exitX=0.72;exitY=0.789;exitDx=0;exitDy=0;exitPerimeter=0;entryX=0;entryY=0;entryDx=0;entryDy=0;" edge="1" parent="1" source="V0V0roWgJoOmdIvO1yHo-4" target="V0V0roWgJoOmdIvO1yHo-18">
          <mxGeometry width="50" height="50" relative="1" as="geometry">
            <mxPoint x="330" y="490" as="sourcePoint" />
            <mxPoint x="380" y="440" as="targetPoint" />
          </mxGeometry>
        </mxCell>
        <mxCell id="V0V0roWgJoOmdIvO1yHo-20" value="" style="endArrow=classic;html=1;rounded=0;entryX=1;entryY=0;entryDx=0;entryDy=0;exitX=0.467;exitY=1;exitDx=0;exitDy=0;exitPerimeter=0;" edge="1" parent="1" source="V0V0roWgJoOmdIvO1yHo-17" target="V0V0roWgJoOmdIvO1yHo-18">
          <mxGeometry width="50" height="50" relative="1" as="geometry">
            <mxPoint x="670" y="410" as="sourcePoint" />
            <mxPoint x="720" y="360" as="targetPoint" />
          </mxGeometry>
        </mxCell>
        <mxCell id="V0V0roWgJoOmdIvO1yHo-21" value="Page communauté" style="shape=ext;double=1;rounded=0;whiteSpace=wrap;html=1;" vertex="1" parent="1">
          <mxGeometry x="230" y="570" width="120" height="80" as="geometry" />
        </mxCell>
        <mxCell id="V0V0roWgJoOmdIvO1yHo-22" value="" style="endArrow=classic;html=1;rounded=0;entryX=1;entryY=0;entryDx=0;entryDy=0;exitX=0;exitY=1;exitDx=0;exitDy=0;" edge="1" parent="1" source="V0V0roWgJoOmdIvO1yHo-18" target="V0V0roWgJoOmdIvO1yHo-21">
          <mxGeometry width="50" height="50" relative="1" as="geometry">
            <mxPoint x="370" y="570" as="sourcePoint" />
            <mxPoint x="420" y="520" as="targetPoint" />
          </mxGeometry>
        </mxCell>
        <mxCell id="V0V0roWgJoOmdIvO1yHo-23" value="Page chat&amp;nbsp;" style="shape=ext;double=1;rounded=0;whiteSpace=wrap;html=1;" vertex="1" parent="1">
          <mxGeometry x="230" y="710" width="120" height="80" as="geometry" />
        </mxCell>
        <mxCell id="V0V0roWgJoOmdIvO1yHo-24" value="" style="endArrow=classic;html=1;rounded=0;exitX=0.5;exitY=1;exitDx=0;exitDy=0;entryX=0.5;entryY=0;entryDx=0;entryDy=0;" edge="1" parent="1" source="V0V0roWgJoOmdIvO1yHo-21" target="V0V0roWgJoOmdIvO1yHo-23">
          <mxGeometry width="50" height="50" relative="1" as="geometry">
            <mxPoint x="290" y="770" as="sourcePoint" />
            <mxPoint x="340" y="720" as="targetPoint" />
          </mxGeometry>
        </mxCell>
        <mxCell id="V0V0roWgJoOmdIvO1yHo-25" value="Story books" style="shape=ext;double=1;rounded=0;whiteSpace=wrap;html=1;" vertex="1" parent="1">
          <mxGeometry x="450" y="570" width="120" height="80" as="geometry" />
        </mxCell>
        <mxCell id="V0V0roWgJoOmdIvO1yHo-26" value="Intelligence books" style="shape=ext;double=1;rounded=0;whiteSpace=wrap;html=1;" vertex="1" parent="1">
          <mxGeometry x="596" y="570" width="120" height="80" as="geometry" />
        </mxCell>
        <mxCell id="V0V0roWgJoOmdIvO1yHo-27" value="Learning books" style="shape=ext;double=1;rounded=0;whiteSpace=wrap;html=1;" vertex="1" parent="1">
          <mxGeometry x="740" y="570" width="120" height="80" as="geometry" />
        </mxCell>
        <mxCell id="V0V0roWgJoOmdIvO1yHo-28" value="Art books" style="shape=ext;double=1;rounded=0;whiteSpace=wrap;html=1;" vertex="1" parent="1">
          <mxGeometry x="880" y="570" width="120" height="80" as="geometry" />
        </mxCell>
        <mxCell id="V0V0roWgJoOmdIvO1yHo-29" value="" style="endArrow=classic;html=1;rounded=0;exitX=0.5;exitY=1;exitDx=0;exitDy=0;entryX=0.5;entryY=0;entryDx=0;entryDy=0;" edge="1" parent="1" source="V0V0roWgJoOmdIvO1yHo-18" target="V0V0roWgJoOmdIvO1yHo-25">
          <mxGeometry width="50" height="50" relative="1" as="geometry">
            <mxPoint x="600" y="560" as="sourcePoint" />
            <mxPoint x="650" y="510" as="targetPoint" />
          </mxGeometry>
        </mxCell>
        <mxCell id="V0V0roWgJoOmdIvO1yHo-30" value="" style="endArrow=classic;html=1;rounded=0;exitX=0.5;exitY=1;exitDx=0;exitDy=0;entryX=0.5;entryY=0;entryDx=0;entryDy=0;" edge="1" parent="1" source="V0V0roWgJoOmdIvO1yHo-18" target="V0V0roWgJoOmdIvO1yHo-26">
          <mxGeometry width="50" height="50" relative="1" as="geometry">
            <mxPoint x="590" y="570" as="sourcePoint" />
            <mxPoint x="640" y="520" as="targetPoint" />
          </mxGeometry>
        </mxCell>
        <mxCell id="V0V0roWgJoOmdIvO1yHo-31" value="" style="endArrow=classic;html=1;rounded=0;entryX=0.5;entryY=0;entryDx=0;entryDy=0;exitX=0.5;exitY=1;exitDx=0;exitDy=0;" edge="1" parent="1" source="V0V0roWgJoOmdIvO1yHo-18" target="V0V0roWgJoOmdIvO1yHo-27">
          <mxGeometry width="50" height="50" relative="1" as="geometry">
            <mxPoint x="620" y="540" as="sourcePoint" />
            <mxPoint x="726" y="560" as="targetPoint" />
          </mxGeometry>
        </mxCell>
        <mxCell id="V0V0roWgJoOmdIvO1yHo-32" value="" style="endArrow=classic;html=1;rounded=0;exitX=0.5;exitY=1;exitDx=0;exitDy=0;entryX=0.5;entryY=0;entryDx=0;entryDy=0;" edge="1" parent="1" source="V0V0roWgJoOmdIvO1yHo-18" target="V0V0roWgJoOmdIvO1yHo-28">
          <mxGeometry width="50" height="50" relative="1" as="geometry">
            <mxPoint x="610" y="500" as="sourcePoint" />
            <mxPoint x="840" y="560" as="targetPoint" />
          </mxGeometry>
        </mxCell>
        <mxCell id="V0V0roWgJoOmdIvO1yHo-33" value="Book details" style="shape=ext;double=1;rounded=0;whiteSpace=wrap;html=1;" vertex="1" parent="1">
          <mxGeometry x="670" y="665" width="120" height="80" as="geometry" />
        </mxCell>
        <mxCell id="V0V0roWgJoOmdIvO1yHo-34" value="Read book" style="shape=ext;double=1;rounded=0;whiteSpace=wrap;html=1;" vertex="1" parent="1">
          <mxGeometry x="670" y="760" width="120" height="80" as="geometry" />
        </mxCell>
        <mxCell id="V0V0roWgJoOmdIvO1yHo-35" value="" style="endArrow=classic;html=1;rounded=0;exitX=0.558;exitY=1;exitDx=0;exitDy=0;exitPerimeter=0;entryX=0;entryY=0.5;entryDx=0;entryDy=0;" edge="1" parent="1" source="V0V0roWgJoOmdIvO1yHo-25" target="V0V0roWgJoOmdIvO1yHo-33">
          <mxGeometry width="50" height="50" relative="1" as="geometry">
            <mxPoint x="520" y="790" as="sourcePoint" />
            <mxPoint x="570" y="740" as="targetPoint" />
          </mxGeometry>
        </mxCell>
        <mxCell id="V0V0roWgJoOmdIvO1yHo-36" value="" style="endArrow=classic;html=1;rounded=0;exitX=0.5;exitY=1;exitDx=0;exitDy=0;entryX=0.25;entryY=0;entryDx=0;entryDy=0;" edge="1" parent="1" source="V0V0roWgJoOmdIvO1yHo-26" target="V0V0roWgJoOmdIvO1yHo-33">
          <mxGeometry width="50" height="50" relative="1" as="geometry">
            <mxPoint x="540" y="830" as="sourcePoint" />
            <mxPoint x="590" y="780" as="targetPoint" />
          </mxGeometry>
        </mxCell>
        <mxCell id="V0V0roWgJoOmdIvO1yHo-37" value="" style="endArrow=classic;html=1;rounded=0;exitX=0.692;exitY=0.975;exitDx=0;exitDy=0;exitPerimeter=0;entryX=0.75;entryY=0;entryDx=0;entryDy=0;" edge="1" parent="1" source="V0V0roWgJoOmdIvO1yHo-27" target="V0V0roWgJoOmdIvO1yHo-33">
          <mxGeometry width="50" height="50" relative="1" as="geometry">
            <mxPoint x="560" y="810" as="sourcePoint" />
            <mxPoint x="610" y="760" as="targetPoint" />
          </mxGeometry>
        </mxCell>
        <mxCell id="V0V0roWgJoOmdIvO1yHo-38" value="" style="endArrow=classic;html=1;rounded=0;exitX=0.5;exitY=1;exitDx=0;exitDy=0;entryX=1;entryY=0.5;entryDx=0;entryDy=0;" edge="1" parent="1" source="V0V0roWgJoOmdIvO1yHo-28" target="V0V0roWgJoOmdIvO1yHo-33">
          <mxGeometry width="50" height="50" relative="1" as="geometry">
            <mxPoint x="923" y="700" as="sourcePoint" />
            <mxPoint x="860" y="717" as="targetPoint" />
          </mxGeometry>
        </mxCell>
        <mxCell id="V0V0roWgJoOmdIvO1yHo-39" value="" style="endArrow=classic;html=1;rounded=0;entryX=0.5;entryY=0;entryDx=0;entryDy=0;exitX=0.5;exitY=1;exitDx=0;exitDy=0;" edge="1" parent="1" source="V0V0roWgJoOmdIvO1yHo-33" target="V0V0roWgJoOmdIvO1yHo-34">
          <mxGeometry width="50" height="50" relative="1" as="geometry">
            <mxPoint x="510" y="800" as="sourcePoint" />
            <mxPoint x="560" y="750" as="targetPoint" />
          </mxGeometry>
        </mxCell>
      </root>
    </mxGraphModel>
  </diagram>
</mxfile>
